# Blender v3.5.0 OBJ File: 'block.blend'
# www.blender.org
mtllib block.mtl
o Cube
v 0.750000 0.750000 -1.000000
v 0.750000 1.000000 -0.750000
v 1.000000 0.750000 -0.750000
v 0.750000 -1.000000 -0.750000
v 0.750000 -0.750000 -1.000000
v 1.000000 -0.750000 -0.750000
v 1.000000 0.750000 0.750000
v 0.750000 1.000000 0.750000
v 0.750000 0.750000 1.000000
v 1.000000 -0.750000 0.750000
v 0.750000 -0.750000 1.000000
v 0.750000 -1.000000 0.750000
v -0.750000 0.750000 -1.000000
v -1.000000 0.750000 -0.750000
v -0.750000 1.000000 -0.750000
v -1.000000 -0.750000 -0.750000
v -0.750000 -0.750000 -1.000000
v -0.750000 -1.000000 -0.750000
v -1.000000 0.750000 0.750000
v -0.750000 0.750000 1.000000
v -0.750000 1.000000 0.750000
v -0.750000 -1.000000 0.750000
v -0.750000 -0.750000 1.000000
v -1.000000 -0.750000 0.750000
vt 0.291428 0.715578
vt 0.228056 0.778950
vt 0.228056 0.715578
vt 0.823190 0.585649
vt 0.759818 0.649021
vt 0.759818 0.585649
vt 0.823190 0.839136
vt 0.759818 0.902508
vt 0.759818 0.839136
vt 0.346627 0.562699
vt 0.283255 0.626071
vt 0.283255 0.562699
vt 0.823190 0.754641
vt 0.759818 0.818012
vt 0.759818 0.754641
vt 0.406841 0.420743
vt 0.408378 0.411527
vt 0.416058 0.422280
vt 0.200828 0.842141
vt 0.200828 0.832797
vt 0.210172 0.842141
vt 0.489792 0.434576
vt 0.500546 0.426896
vt 0.499009 0.436113
vt 0.210172 0.898205
vt 0.200828 0.907550
vt 0.200828 0.898205
vt 0.342324 0.409984
vt 0.333107 0.408447
vt 0.334644 0.399231
vt 0.135419 0.842141
vt 0.144763 0.832797
vt 0.144763 0.842141
vt 0.277806 0.399225
vt 0.268589 0.397688
vt 0.279343 0.390009
vt 0.144763 0.898205
vt 0.144763 0.907550
vt 0.135419 0.898205
vt 0.416053 0.479118
vt 0.425275 0.423817
vt 0.268584 0.454526
vt 0.259367 0.452989
vt 0.489787 0.491414
vt 0.480575 0.433039
vt 0.342318 0.466822
vt 0.351540 0.411521
vt 0.555847 0.436118
vt 0.483649 0.414606
vt 0.428349 0.405384
vt 0.353077 0.402305
vt 0.219516 0.898205
vt 0.823190 0.670145
vt 0.759818 0.733517
vt 0.759818 0.670145
vt 0.291428 0.778950
vt 0.823190 0.649021
vt 0.823190 0.902508
vt 0.346627 0.626071
vt 0.823190 0.818012
vt 0.397619 0.476044
vt 0.471353 0.488340
vt 0.323885 0.463748
vt 0.554310 0.445335
vt 0.219516 0.842141
vt 0.823190 0.733517
vn 0.0000 -1.0000 0.0000
vn -1.0000 0.0000 0.0000
vn 0.0000 0.0000 1.0000
vn 0.0000 1.0000 0.0000
vn 1.0000 0.0000 0.0000
vn 0.5774 0.5774 -0.5774
vn 0.5774 -0.5774 -0.5774
vn 0.5774 0.5774 0.5774
vn 0.5774 -0.5774 0.5774
vn -0.5774 0.5774 -0.5774
vn -0.5774 -0.5774 -0.5774
vn -0.5774 0.5774 0.5774
vn -0.5774 -0.5774 0.5774
vn -0.7071 -0.7071 0.0000
vn 0.0000 -0.7071 -0.7071
vn 0.7071 0.0000 -0.7071
vn -0.7071 0.0000 0.7071
vn 0.7071 0.0000 0.7071
vn -0.7071 0.0000 -0.7071
vn 0.0000 0.7071 0.7071
vn 0.7071 0.7071 0.0000
vn 0.0000 -0.7071 0.7071
vn -0.7071 0.7071 0.0000
vn 0.0000 0.7071 -0.7071
vn 0.7071 -0.7071 0.0000
vn 0.0000 0.0000 -1.0000
usemtl Material
s off
f 4/1/1 22/2/1 18/3/1
f 19/4/2 16/5/2 24/6/2
f 9/7/3 23/8/3 11/9/3
f 15/10/4 8/11/4 2/12/4
f 3/13/5 10/14/5 6/15/5
f 1/16/6 2/17/6 3/18/6
f 4/19/7 5/20/7 6/21/7
f 7/22/8 8/23/8 9/24/8
f 10/25/9 11/26/9 12/27/9
f 13/28/10 14/29/10 15/30/10
f 16/31/11 17/32/11 18/33/11
f 19/34/12 20/35/12 21/36/12
f 22/37/13 23/38/13 24/39/13
f 22/37/14 16/31/14 18/33/14
f 18/33/15 5/20/15 4/19/15
f 6/40/16 1/16/16 3/41/16
f 20/35/17 24/42/17 23/43/17
f 11/44/18 7/45/18 9/24/18
f 17/46/19 14/29/19 13/47/19
f 21/48/20 9/24/20 8/23/20
f 8/49/21 3/41/21 2/50/21
f 12/27/22 23/38/22 22/37/22
f 15/30/23 19/34/23 21/36/23
f 2/17/24 13/47/24 15/51/24
f 4/19/25 10/52/25 12/27/25
f 13/53/26 5/54/26 17/55/26
f 4/1/1 12/56/1 22/2/1
f 19/4/2 14/57/2 16/5/2
f 9/7/3 20/58/3 23/8/3
f 15/10/4 21/59/4 8/11/4
f 3/13/5 7/60/5 10/14/5
f 22/37/14 24/39/14 16/31/14
f 18/33/15 17/32/15 5/20/15
f 6/40/16 5/61/16 1/16/16
f 20/35/17 19/34/17 24/42/17
f 11/44/18 10/62/18 7/45/18
f 17/46/19 16/63/19 14/29/19
f 21/48/20 20/64/20 9/24/20
f 8/49/21 7/45/21 3/41/21
f 12/27/22 11/26/22 23/38/22
f 15/30/23 14/29/23 19/34/23
f 2/17/24 1/16/24 13/47/24
f 4/19/25 6/65/25 10/52/25
f 13/53/26 1/66/26 5/54/26
