# Blender v3.5.0 OBJ File: 'PlayerBody.blend'
# www.blender.org
mtllib PlayerHead.mtl
o 頭_立方体
v 1.000000 -0.988138 0.949042
v 0.960200 0.957353 0.308406
v -1.000000 -0.988138 0.949042
v -0.960200 0.957353 0.308406
v 0.795548 -1.386675 -2.362310
v 0.795548 0.910366 -2.121699
v -0.795548 -1.386675 -2.362310
v -0.795548 0.910366 -2.121699
v -0.888848 -1.421640 0.250000
v 0.888848 -1.421640 0.250000
v 1.000000 0.500000 1.000000
v -1.000000 0.500000 1.000000
v -0.813400 -0.119798 -2.449849
v 0.813400 -0.119798 -2.449849
v 1.000000 -0.156250 0.000000
v -1.000000 -0.156250 0.000000
v 0.000000 -0.988138 0.949042
v 0.000000 0.957200 0.308406
v 0.000000 -1.332916 -2.548265
v 0.000000 0.910206 -2.116670
v 0.000000 -1.421793 0.250000
v 0.000000 0.067662 -2.608817
v 0.000000 0.489959 1.000000
v -0.777696 1.000306 -1.252891
v 0.777696 -1.431605 -1.405058
v -0.777696 -1.431605 -1.405058
v 0.777696 1.000306 -1.252891
v 0.912593 -0.024212 -1.070752
v -0.912593 -0.024212 -1.070752
v 0.000000 1.000000 -1.119949
v 0.000000 -1.433654 -1.421788
v -0.906700 -0.886844 -2.143328
v 0.906700 -0.886844 -2.143328
v 1.000000 -0.725176 0.000000
v -1.000000 -0.725176 0.000000
v 0.000000 -0.839916 -2.380670
v -0.974793 -0.845000 -0.813369
v 0.949586 -0.814227 -0.765432
v -0.770952 -0.360389 -0.247280
v 0.770952 -0.360389 -0.247280
v 0.000000 -0.374275 -0.257929
v -0.773696 -0.699282 -0.188048
v 0.773696 -0.699282 -0.188048
v 0.000000 -0.699700 -0.191094
v 0.905882 -0.788077 -1.821395
v -0.905882 -0.788077 -1.821395
v -0.900899 -0.011918 -1.924488
v 0.900899 -0.011918 -1.924488
v -1.059189 -0.440713 0.500000
v 1.059189 -0.440713 0.500000
v 1.000000 0.056011 -1.491365
v -0.786187 -0.294697 -1.559685
v 0.786187 -0.294697 -1.559685
v 0.000000 -0.295116 -1.553647
v -1.000000 0.056011 -1.491365
v 0.000000 -0.006846 -1.928356
v 0.000000 -0.030763 -1.094226
v -0.902527 -0.894472 -1.328035
v 0.902527 -0.894472 -1.328035
v 0.000000 -0.868284 -1.436672
v -0.798343 -0.587339 -1.093013
v 0.798343 -0.587339 -1.093013
v 0.000000 -0.587759 -1.098794
v 0.000000 -0.650563 -1.868004
v 0.000000 -0.733728 -0.701854
v -0.813400 0.255149 -2.522020
v 0.813400 0.255149 -2.522020
v 1.000000 0.500000 -0.760406
v -1.000000 0.500000 -0.760406
v 1.000000 0.500000 -1.680846
v -1.000000 0.500000 -1.680846
v -0.974695 0.451619 0.270751
v 0.983771 0.529022 0.297212
v -0.812148 -0.277591 -2.314247
v 0.812148 -0.277591 -2.314247
v 0.000000 -0.278013 -2.302848
v -0.915416 0.094649 0.270659
v -0.758296 0.251769 0.270659
v -0.915416 0.251769 0.427779
v -0.758296 0.533562 0.270659
v -0.915416 0.690682 0.270659
v -0.915416 0.533562 0.427779
v -1.197210 0.094649 0.270659
v -1.197210 0.251769 0.427779
v -1.354330 0.251769 0.270659
v -1.197210 0.690682 0.270659
v -1.354330 0.533562 0.270659
v -1.197210 0.533562 0.427779
v -0.915416 0.094649 -0.011135
v -0.915416 0.251769 -0.168255
v -0.758296 0.251769 -0.011135
v -0.915416 0.690682 -0.011135
v -0.758296 0.533562 -0.011135
v -0.915416 0.533562 -0.168255
v -1.197210 0.094649 -0.011135
v -1.354330 0.251769 -0.011135
v -1.197210 0.251769 -0.168255
v -1.197210 0.690682 -0.011135
v -1.197210 0.533562 -0.168255
v -1.354330 0.533562 -0.011135
v 1.170853 0.094649 0.270659
v 1.327973 0.251769 0.270659
v 1.170853 0.251769 0.427779
v 1.327973 0.533562 0.270659
v 1.170853 0.690682 0.270659
v 1.170853 0.533562 0.427779
v 0.889060 0.094649 0.270659
v 0.889060 0.251769 0.427779
v 0.731940 0.251769 0.270659
v 0.889060 0.690682 0.270659
v 0.731940 0.533562 0.270659
v 0.889060 0.533562 0.427779
v 1.170853 0.094649 -0.011135
v 1.170853 0.251769 -0.168255
v 1.327973 0.251769 -0.011135
v 1.170853 0.690682 -0.011135
v 1.327973 0.533562 -0.011135
v 1.170853 0.533562 -0.168255
v 0.889060 0.094649 -0.011135
v 0.731940 0.251769 -0.011135
v 0.889060 0.251769 -0.168255
v 0.889060 0.690682 -0.011135
v 0.889060 0.533562 -0.168255
v 0.731940 0.533562 -0.011135
vt 0.121244 0.258670
vt 0.131083 0.268509
vt 0.121244 0.268509
vt 0.121244 0.305405
vt 0.131083 0.307865
vt 0.121244 0.307865
vt 0.131083 0.337382
vt 0.121244 0.347221
vt 0.121244 0.337382
vt 0.121244 0.376738
vt 0.131083 0.386577
vt 0.121244 0.386577
vt 0.089268 0.337382
vt 0.091727 0.337382
vt 0.089268 0.347221
vt 0.140922 0.337382
vt 0.150761 0.347221
vt 0.140922 0.347221
vt 0.121244 0.357060
vt 0.131083 0.366899
vt 0.121244 0.364297
vt 0.110790 0.337382
vt 0.111405 0.347221
vt 0.110790 0.347221
vt 0.072049 0.337382
vt 0.081888 0.347221
vt 0.072049 0.347221
vt 0.131083 0.288187
vt 0.121244 0.298026
vt 0.127266 0.288187
vt 0.091727 0.288187
vt 0.101566 0.298026
vt 0.091727 0.298026
vt 0.101566 0.337382
vt 0.091727 0.347221
vt 0.091727 0.376738
vt 0.101566 0.376738
vt 0.091727 0.386577
vt 0.101566 0.357060
vt 0.091727 0.366899
vt 0.091727 0.357060
vt 0.091727 0.278348
vt 0.101566 0.278348
vt 0.101566 0.288187
vt 0.104026 0.288187
vt 0.106486 0.298026
vt 0.104026 0.298026
vt 0.106486 0.258670
vt 0.104026 0.268509
vt 0.104026 0.258670
vt 0.106486 0.337382
vt 0.104026 0.347221
vt 0.104026 0.337382
vt 0.106486 0.376738
vt 0.106486 0.386577
vt 0.104026 0.386577
vt 0.106486 0.357060
vt 0.104026 0.366899
vt 0.104026 0.357060
vt 0.106486 0.278348
vt 0.106486 0.288187
vt 0.102796 0.357060
vt 0.102796 0.366899
vt 0.103719 0.337382
vt 0.103719 0.347221
vt 0.102796 0.298026
vt 0.104026 0.229153
vt 0.106486 0.238992
vt 0.104026 0.238992
vt 0.131083 0.229153
vt 0.121244 0.238992
vt 0.121244 0.229153
vt 0.104026 0.307865
vt 0.103719 0.317704
vt 0.103719 0.307865
vt 0.106486 0.317704
vt 0.104026 0.317704
vt 0.091727 0.307865
vt 0.101566 0.317704
vt 0.091727 0.317704
vt 0.081888 0.307865
vt 0.072049 0.317704
vt 0.072049 0.307865
vt 0.131083 0.317704
vt 0.121244 0.317704
vt 0.089268 0.317704
vt 0.150761 0.307865
vt 0.140922 0.317704
vt 0.140922 0.307865
vt 0.111405 0.307865
vt 0.110790 0.317704
vt 0.110790 0.307865
vt 0.091727 0.301715
vt 0.101566 0.301715
vt 0.101566 0.302945
vt 0.091727 0.349680
vt 0.101566 0.352140
vt 0.091727 0.352140
vt 0.062210 0.307865
vt 0.052371 0.317704
vt 0.052371 0.307865
vt 0.180157 0.056841
vt 0.188234 0.056841
vt 0.180157 0.089148
vt 0.106486 0.366899
vt 0.104026 0.376738
vt 0.101566 0.268509
vt 0.101566 0.366899
vt 0.131083 0.278348
vt 0.121244 0.278348
vt 0.052371 0.337382
vt 0.062210 0.347221
vt 0.052371 0.347221
vt 0.121244 0.299256
vt 0.131083 0.300486
vt 0.121244 0.300486
vt 0.108946 0.307865
vt 0.107716 0.317704
vt 0.107716 0.307865
vt 0.107716 0.337382
vt 0.108946 0.347221
vt 0.107716 0.347221
vt 0.121244 0.352755
vt 0.131083 0.352755
vt 0.131083 0.353370
vt 0.136618 0.337382
vt 0.137233 0.347221
vt 0.136618 0.347221
vt 0.137233 0.307865
vt 0.136618 0.317704
vt 0.136618 0.307865
vt 0.110175 0.317704
vt 0.108946 0.317704
vt 0.110175 0.337382
vt 0.108946 0.337382
vt 0.106486 0.347221
vt 0.106486 0.307865
vt 0.121244 0.354600
vt 0.131083 0.355830
vt 0.121244 0.355830
vt 0.091727 0.299256
vt 0.101566 0.299256
vt 0.101566 0.300486
vt 0.102181 0.307865
vt 0.102796 0.317704
vt 0.102181 0.317704
vt 0.102796 0.337382
vt 0.102181 0.347221
vt 0.102181 0.337382
vt 0.103411 0.307865
vt 0.103104 0.317704
vt 0.103104 0.307865
vt 0.103104 0.337382
vt 0.103411 0.347221
vt 0.103104 0.347221
vt 0.091727 0.354600
vt 0.101566 0.354600
vt 0.101566 0.355830
vt 0.101566 0.353370
vt 0.101566 0.347221
vt 0.101566 0.307865
vt 0.108946 0.302945
vt 0.110175 0.301715
vt 0.110175 0.305405
vt 0.110790 0.350295
vt 0.110175 0.350910
vt 0.109560 0.299871
vt 0.131083 0.349680
vt 0.121244 0.349680
vt 0.111098 0.349988
vt 0.108946 0.288187
vt 0.108946 0.298026
vt 0.110790 0.306635
vt 0.111405 0.305405
vt 0.108946 0.357060
vt 0.103104 0.353370
vt 0.103411 0.354600
vt 0.102489 0.355215
vt 0.086808 0.307865
vt 0.089268 0.307865
vt 0.086808 0.317704
vt 0.103411 0.337382
vt 0.102489 0.303560
vt 0.102335 0.303868
vt 0.091727 0.305405
vt 0.091727 0.302945
vt 0.086808 0.347221
vt 0.111405 0.349680
vt 0.111405 0.355830
vt 0.111405 0.354600
vt 0.111405 0.352755
vt 0.121244 0.353370
vt 0.111405 0.353370
vt 0.111405 0.299256
vt 0.111405 0.300486
vt 0.111405 0.376738
vt 0.111405 0.366899
vt 0.111405 0.278348
vt 0.103411 0.317704
vt 0.111405 0.317704
vt 0.111405 0.288187
vt 0.121244 0.290788
vt 0.117656 0.288187
vt 0.117656 0.366899
vt 0.111405 0.386577
vt 0.111405 0.301715
vt 0.121244 0.302330
vt 0.111405 0.302330
vt 0.121244 0.301715
vt 0.131083 0.301715
vt 0.131083 0.302330
vt 0.110175 0.307865
vt 0.110175 0.347221
vt 0.131083 0.258670
vt 0.131083 0.347221
vt 0.150761 0.337382
vt 0.131083 0.357060
vt 0.111405 0.337382
vt 0.081888 0.337382
vt 0.131083 0.298026
vt 0.106486 0.268509
vt 0.106486 0.229153
vt 0.131083 0.238992
vt 0.081888 0.317704
vt 0.150761 0.317704
vt 0.101566 0.349680
vt 0.062210 0.317704
vt 0.062210 0.337382
vt 0.315359 0.735630
vt 0.315359 0.754664
vt 0.312979 0.754664
vt 0.137233 0.337382
vt 0.137233 0.317704
vt 0.102796 0.307865
vt 0.102796 0.347221
vt 0.101566 0.305405
vt 0.111405 0.298026
vt 0.111405 0.357060
vt 0.559098 0.815902
vt 0.440902 0.934098
vt 0.440902 0.815902
vt 0.876411 0.161833
vt 0.848402 0.189842
vt 0.848402 0.161833
vt 0.935655 0.161833
vt 0.907646 0.189842
vt 0.907646 0.161833
vt 0.876411 0.043345
vt 0.848402 0.071355
vt 0.848402 0.043345
vt 0.876411 0.102589
vt 0.848402 0.130599
vt 0.848402 0.102589
vt 0.190902 0.684098
vt 0.190902 0.750000
vt 0.125000 0.684098
vt 0.559098 0.000000
vt 0.625000 0.065902
vt 0.559098 0.065902
vt 0.789158 0.161833
vt 0.773541 0.161833
vt 0.789158 0.146216
vt 0.892028 0.071355
vt 0.876411 0.086972
vt 0.876411 0.071355
vt 0.309098 0.684098
vt 0.375000 0.684098
vt 0.309098 0.750000
vt 0.625000 0.815902
vt 0.559098 0.750000
vt 0.817167 0.161833
vt 0.817167 0.146216
vt 0.832785 0.161833
vt 0.892028 0.130599
vt 0.876411 0.146216
vt 0.876411 0.130599
vt 0.789158 0.189842
vt 0.440902 0.065902
vt 0.440902 0.000000
vt 0.892028 0.043345
vt 0.892028 0.102589
vt 0.817167 0.189842
vt 0.559098 0.684098
vt 0.625000 0.934098
vt 0.559098 0.934098
vt 0.876411 0.189842
vt 0.935655 0.189842
vt 0.773541 0.189842
vt 0.440902 0.684098
vt 0.876411 0.221077
vt 0.848402 0.249086
vt 0.848402 0.221077
vt 0.876411 0.161833
vt 0.848402 0.189842
vt 0.848402 0.161833
vt 0.935655 0.161833
vt 0.907646 0.189842
vt 0.907646 0.161833
vt 0.876411 0.043345
vt 0.848402 0.071355
vt 0.848402 0.043345
vt 0.559098 0.315902
vt 0.440902 0.434098
vt 0.440902 0.315902
vt 0.789158 0.189842
vt 0.789158 0.205460
vt 0.773541 0.189842
vt 0.876411 0.027728
vt 0.892028 0.043345
vt 0.190902 0.565902
vt 0.125000 0.565902
vt 0.190902 0.500000
vt 0.625000 0.184098
vt 0.559098 0.250000
vt 0.559098 0.184098
vt 0.817167 0.189842
vt 0.832785 0.189842
vt 0.817167 0.205460
vt 0.892028 0.221077
vt 0.876411 0.205460
vt 0.309098 0.565902
vt 0.309098 0.500000
vt 0.375000 0.565902
vt 0.625000 0.434098
vt 0.559098 0.500000
vt 0.559098 0.434098
vt 0.773541 0.161833
vt 0.789158 0.161833
vt 0.848402 0.027728
vt 0.892028 0.071355
vt 0.625000 0.315902
vt 0.440902 0.565902
vt 0.559098 0.565902
vt 0.817167 0.161833
vt 0.876411 0.189842
vt 0.892028 0.249086
vt 0.876411 0.249086
vt 0.935655 0.189842
vt 0.876411 0.071355
vt 0.440902 0.184098
vn 0.0084 0.8339 0.5519
vn -0.9461 0.1873 -0.2644
vn -0.0241 0.5042 -0.8632
vn 0.9982 0.0555 -0.0208
vn -0.0464 -0.9950 -0.0890
vn 0.0042 0.9996 0.0270
vn 0.9984 0.0546 0.0138
vn -0.0103 -0.6517 -0.7584
vn 0.0002 -1.0000 0.0060
vn -0.9993 0.0267 0.0258
vn -0.9635 -0.2601 -0.0631
vn 0.2362 0.3128 -0.9200
vn 0.9859 -0.1559 -0.0601
vn 0.9766 -0.2052 -0.0644
vn -0.9860 -0.1655 -0.0226
vn -0.6249 -0.1295 -0.7699
vn 0.0000 -0.0345 0.9994
vn 0.0040 -0.2012 -0.9795
vn 0.9921 -0.0043 0.1255
vn 0.6249 -0.1295 -0.7699
vn -0.9931 0.0000 -0.1176
vn 0.2162 0.9681 -0.1269
vn 0.0716 0.9822 -0.1737
vn -0.2336 0.9609 -0.1488
vn -0.0084 0.8339 0.5519
vn -0.0887 0.9760 -0.1989
vn -0.0040 -0.2012 -0.9795
vn -0.2362 0.3128 -0.9200
vn -0.0002 -1.0000 0.0060
vn 0.0241 0.5042 -0.8632
vn 0.0464 -0.9950 -0.0890
vn -0.0042 0.9996 0.0270
vn 0.0103 -0.6517 -0.7584
vn -0.9745 -0.2206 -0.0409
vn 0.9818 -0.1895 0.0094
vn 0.0000 -0.8499 0.5270
vn -0.9921 -0.0043 0.1255
vn 0.9931 0.0000 -0.1176
vn -0.9859 -0.1559 -0.0601
vn 0.9860 -0.1655 -0.0226
vn -0.9988 0.0314 -0.0367
vn -0.9138 0.4061 0.0000
vn 0.0062 -0.8743 0.4853
vn -0.0062 -0.8743 0.4853
vn 0.9054 0.4239 -0.0253
vn -0.0009 0.9947 -0.1030
vn 0.0009 0.9947 -0.1030
vn 0.0043 -0.7926 -0.6097
vn -0.0043 -0.7926 -0.6097
vn 0.0219 -0.9248 -0.3799
vn -0.0219 -0.9248 -0.3799
vn 0.9138 0.4061 0.0000
vn -0.9710 -0.2090 -0.1162
vn -0.1116 0.8871 0.4478
vn 0.1116 0.8871 0.4478
vn -0.1110 0.6274 -0.7707
vn 0.1110 0.6274 -0.7707
vn 0.9744 -0.2192 -0.0502
vn 0.9745 -0.2206 -0.0409
vn 0.1379 0.9291 -0.3432
vn -0.1379 0.9291 -0.3432
vn -0.8579 -0.5001 -0.1179
vn 0.8579 -0.5001 -0.1179
vn -0.8449 -0.5296 0.0746
vn 0.8449 -0.5296 0.0746
vn 0.9461 0.1873 -0.2644
vn 0.9824 -0.1261 -0.1377
vn -0.7394 -0.6582 -0.1415
vn -0.9824 -0.1261 -0.1377
vn 0.7394 -0.6582 -0.1415
vn 0.9028 0.4086 -0.1338
vn -0.0036 -0.9989 -0.0468
vn -0.0030 0.9385 0.3451
vn -0.8883 0.4283 -0.1659
vn -0.9818 -0.1895 0.0094
vn 0.0036 -0.9989 -0.0468
vn 0.9869 -0.0304 -0.1581
vn 0.9711 0.0938 0.2197
vn 0.9739 -0.0891 -0.2089
vn -0.9711 0.0938 0.2197
vn 0.9947 0.0599 -0.0837
vn -0.9957 0.0840 -0.0401
vn 0.0030 0.9385 0.3451
vn -0.1467 -0.1870 -0.9713
vn -0.9992 0.0300 0.0259
vn -0.9944 0.0749 -0.0751
vn 0.9997 0.0172 0.0149
vn 0.9971 0.0734 -0.0200
vn 0.1467 -0.1870 -0.9713
vn -0.9869 -0.0304 -0.1581
vn -0.9739 -0.0891 -0.2089
vn -0.9054 0.4239 -0.0253
vn 0.0071 -0.8255 0.5643
vn -0.0071 -0.8255 0.5643
vn 0.0001 0.8286 0.5598
vn -0.0055 0.5212 -0.8534
vn -0.0002 0.9996 0.0300
vn 0.9423 0.3189 -0.1014
vn -0.0064 -0.6628 -0.7488
vn 0.0025 -1.0000 0.0071
vn -0.9423 0.3189 -0.1014
vn -0.9871 -0.1601 -0.0070
vn 0.2546 0.3400 -0.9053
vn 0.9839 -0.1731 -0.0447
vn -0.7336 0.0000 -0.6795
vn -0.0003 -0.0342 0.9994
vn 0.0167 -0.1720 -0.9850
vn 0.7336 0.0000 -0.6795
vn -0.0003 0.9978 -0.0665
vn 0.0003 -0.0342 0.9994
vn -0.0001 0.8286 0.5598
vn 0.0003 0.9978 -0.0665
vn -0.0167 -0.1720 -0.9850
vn -0.2546 0.3400 -0.9053
vn -0.0025 -1.0000 0.0071
vn 0.0055 0.5212 -0.8534
vn 0.0002 0.9996 0.0300
vn 0.0064 -0.6628 -0.7488
vn 0.9652 -0.2492 0.0789
vn -0.0001 -0.8498 0.5272
vn 0.0001 -0.8498 0.5272
vn -0.0043 -0.8667 0.4987
vn 0.0043 -0.8667 0.4987
vn -0.0157 0.9958 -0.0897
vn 0.0157 0.9958 -0.0897
vn 0.0018 -0.7901 -0.6130
vn -0.0018 -0.7901 -0.6130
vn 0.0163 -0.9267 -0.3755
vn -0.0163 -0.9267 -0.3755
vn -0.0030 0.9775 0.2108
vn 0.0030 0.9775 0.2108
vn -0.0042 0.7694 -0.6388
vn 0.0042 0.7694 -0.6388
vn 0.1582 0.9441 -0.2892
vn -0.1582 0.9441 -0.2892
vn 0.1068 0.8398 0.5323
vn -0.9652 -0.2492 0.0789
vn 0.9771 -0.0998 -0.1877
vn 0.9864 -0.1645 0.0000
vn -0.9864 -0.1645 0.0000
vn -0.1585 0.7739 0.6131
vn -0.9895 -0.1092 -0.0942
vn 0.9895 -0.1092 -0.0942
vn -0.9771 -0.0998 -0.1877
vn -0.0087 -0.8099 0.5865
vn 0.0087 -0.8099 0.5865
vn 1.0000 0.0000 0.0000
vn 0.0000 0.0000 -1.0000
vn 0.0000 1.0000 0.0000
vn 0.0000 0.0000 1.0000
vn -1.0000 0.0000 0.0000
vn 0.5774 -0.5774 0.5774
vn 0.5774 0.5774 0.5773
vn -0.5774 -0.5774 0.5774
vn -0.5774 0.5774 0.5773
vn 0.5774 -0.5774 -0.5774
vn 0.5774 0.5774 -0.5774
vn -0.5774 -0.5774 -0.5774
vn -0.5774 0.5774 -0.5774
vn 0.0000 -0.7071 0.7071
vn 0.7071 0.0000 0.7071
vn 0.0000 0.7071 0.7071
vn -0.7071 0.0000 0.7071
vn -0.7071 -0.7071 0.0000
vn -0.7071 0.7071 0.0000
vn -0.7071 0.0000 -0.7071
vn 0.0000 -0.7071 -0.7071
vn 0.0000 0.7071 -0.7071
vn 0.7071 0.0000 -0.7071
vn 0.7071 -0.7071 0.0000
vn 0.7071 0.7071 0.0000
vn 0.0000 -1.0000 0.0000
vn -0.5774 0.5774 0.5774
usemtl Material
s off
f 23/1/1 4/2/1 12/3/1
f 71/4/2 8/5/2 66/6/2
f 20/7/3 67/8/3 22/9/3
f 73/10/4 2/11/4 11/12/4
f 31/13/5 19/14/5 5/15/5
f 30/16/6 2/17/6 27/18/6
f 68/19/7 2/20/7 73/21/7
f 76/22/8 14/23/8 75/24/8
f 21/25/9 25/26/9 10/27/9
f 4/28/10 69/29/10 72/30/10
f 9/31/11 37/32/11 26/33/11
f 36/34/12 5/35/12 19/14/12
f 10/36/13 50/37/13 1/38/13
f 38/39/14 10/40/14 25/41/14
f 9/42/15 49/43/15 35/44/15
f 35/45/16 39/46/16 42/47/16
f 23/48/17 3/49/17 17/50/17
f 41/51/18 43/52/18 44/53/18
f 50/54/19 11/55/19 1/56/19
f 40/57/20 34/58/20 43/59/20
f 49/60/21 16/61/21 35/45/21
f 38/62/22 43/59/22 34/63/22
f 65/64/23 43/52/23 38/65/23
f 35/45/24 42/47/24 37/66/24
f 1/67/17 23/68/17 17/69/17
f 2/70/25 23/71/25 11/72/25
f 42/73/26 65/74/26 37/75/26
f 42/73/27 41/76/27 44/77/27
f 7/78/28 36/79/28 19/80/28
f 26/81/29 21/82/29 9/83/29
f 66/6/30 20/84/30 22/85/30
f 7/78/31 19/80/31 31/86/31
f 4/87/32 30/88/32 24/89/32
f 13/90/33 76/91/33 74/92/33
f 26/93/34 58/94/34 46/95/34
f 5/96/35 45/97/35 25/98/35
f 9/99/36 17/100/36 3/101/36
f 3/102/37 12/103/37 49/104/37
f 34/58/38 15/105/38 50/106/38
f 3/107/39 49/43/39 9/42/39
f 10/40/40 34/108/40 50/37/40
f 12/3/41 4/109/41 72/110/41
f 17/111/36 10/112/36 1/113/36
f 69/114/42 24/115/42 71/116/42
f 52/117/43 57/118/43 29/119/43
f 57/120/44 53/121/44 28/122/44
f 70/123/45 6/124/45 27/125/45
f 20/126/46 27/127/46 6/128/46
f 24/129/47 20/130/47 8/131/47
f 52/117/48 56/132/48 54/133/48
f 56/134/49 53/121/49 54/135/49
f 57/120/50 40/136/50 41/51/50
f 39/137/51 57/118/51 41/76/51
f 70/138/52 27/139/52 68/140/52
f 26/141/53 37/142/53 58/143/53
f 46/144/54 60/145/54 64/146/54
f 60/147/55 45/148/55 64/149/55
f 61/150/56 60/151/56 58/152/56
f 60/153/57 62/154/57 59/155/57
f 25/156/58 59/157/58 38/158/58
f 25/98/59 45/97/59 59/159/59
f 64/149/60 33/160/60 36/34/60
f 32/161/61 64/146/61 36/79/61
f 52/162/62 55/163/62 47/164/62
f 53/121/63 48/165/63 51/166/63
f 29/167/64 55/163/64 52/162/64
f 28/122/65 53/121/65 51/166/65
f 67/8/66 6/168/66 70/169/66
f 75/24/67 14/23/67 48/170/67
f 16/171/68 29/172/68 39/46/68
f 74/173/69 47/174/69 13/90/69
f 40/57/70 28/175/70 15/105/70
f 59/176/71 62/177/71 38/178/71
f 26/179/72 7/180/72 31/181/72
f 65/64/73 62/154/73 63/182/73
f 37/183/74 61/150/74 58/184/74
f 46/95/75 7/185/75 26/186/75
f 31/13/76 5/15/76 25/187/76
f 67/8/77 48/188/77 14/23/77
f 70/138/78 28/189/78 51/190/78
f 48/191/79 70/192/79 51/193/79
f 29/194/80 71/116/80 55/195/80
f 73/10/81 50/196/81 15/197/81
f 12/3/82 72/110/82 49/198/82
f 61/150/83 65/74/83 63/199/83
f 13/90/84 66/6/84 22/200/84
f 69/29/85 16/201/85 72/202/85
f 16/201/86 49/198/86 72/203/86
f 15/197/87 68/19/87 73/204/87
f 50/196/88 73/10/88 11/205/88
f 22/9/89 67/8/89 14/23/89
f 47/174/90 66/6/90 13/90/90
f 55/206/91 71/207/91 47/208/91
f 71/209/92 24/210/92 8/211/92
f 74/92/93 56/132/93 47/212/93
f 56/134/94 75/24/94 48/213/94
f 23/1/95 18/214/95 4/2/95
f 20/7/96 6/215/96 67/8/96
f 30/16/97 18/216/97 2/17/97
f 68/19/98 27/217/98 2/20/98
f 76/22/99 22/218/99 14/23/99
f 21/25/100 31/219/100 25/26/100
f 4/28/101 24/220/101 69/29/101
f 9/31/102 35/44/102 37/32/102
f 36/34/103 33/160/103 5/35/103
f 38/39/104 34/108/104 10/40/104
f 35/45/105 16/61/105 39/46/105
f 23/48/106 12/221/106 3/49/106
f 41/51/107 40/136/107 43/52/107
f 40/57/108 15/105/108 34/58/108
f 65/64/109 44/53/109 43/52/109
f 1/67/110 11/222/110 23/68/110
f 2/70/111 18/223/111 23/71/111
f 42/73/112 44/77/112 65/74/112
f 42/73/113 39/137/113 41/76/113
f 7/78/114 32/161/114 36/79/114
f 26/81/115 31/224/115 21/82/115
f 66/6/116 8/5/116 20/84/116
f 4/87/117 18/225/117 30/88/117
f 13/90/118 22/200/118 76/91/118
f 5/96/119 33/226/119 45/97/119
f 9/99/120 21/227/120 17/100/120
f 17/111/121 21/228/121 10/112/121
f 52/229/122 54/230/122 57/231/122
f 57/120/123 54/135/123 53/121/123
f 20/126/124 30/232/124 27/127/124
f 24/129/125 30/233/125 20/130/125
f 52/117/126 47/212/126 56/132/126
f 56/134/127 48/213/127 53/121/127
f 57/120/128 28/122/128 40/136/128
f 39/137/129 29/119/129 57/118/129
f 46/144/130 58/234/130 60/145/130
f 60/147/131 59/235/131 45/148/131
f 61/150/132 63/199/132 60/151/132
f 60/153/133 63/182/133 62/154/133
f 64/149/134 45/148/134 33/160/134
f 32/161/135 46/144/135 64/146/135
f 65/64/136 38/65/136 62/154/136
f 46/95/137 32/236/137 7/185/137
f 67/8/138 70/169/138 48/188/138
f 70/138/139 68/140/139 28/189/139
f 29/194/140 69/114/140 71/116/140
f 61/150/141 37/75/141 65/74/141
f 69/29/142 29/237/142 16/201/142
f 15/197/143 28/238/143 68/19/143
f 47/174/144 71/4/144 66/6/144
f 74/92/145 76/91/145 56/132/145
f 56/134/146 76/22/146 75/24/146
usemtl (null)
f 93/239/147 78/240/147 91/241/147
f 99/242/148 90/243/148 97/244/148
f 86/245/149 92/246/149 98/247/149
f 82/248/150 84/249/150 79/250/150
f 87/251/151 96/252/151 85/253/151
f 77/254/152 78/255/152 79/256/152
f 80/257/153 81/258/153 82/259/153
f 83/260/154 84/261/154 85/262/154
f 86/263/155 87/264/155 88/265/155
f 89/266/156 90/267/156 91/268/156
f 92/269/157 93/239/157 94/270/157
f 95/271/158 96/272/158 97/273/158
f 98/274/159 99/275/159 100/276/159
f 77/277/160 84/261/160 83/260/160
f 80/257/161 79/278/161 78/279/161
f 86/263/162 82/248/162 81/280/162
f 85/253/163 88/265/163 87/251/163
f 83/260/164 96/272/164 95/271/164
f 98/274/165 87/251/165 86/281/165
f 97/244/166 100/276/166 99/242/166
f 95/271/167 90/243/167 89/282/167
f 92/246/168 99/242/168 98/247/168
f 91/241/169 94/283/169 93/239/169
f 89/266/170 78/255/170 77/254/170
f 81/284/171 93/239/171 92/269/171
f 95/271/172 77/277/172 83/260/172
f 93/239/147 80/285/147 78/240/147
f 99/242/148 94/286/148 90/243/148
f 86/245/149 81/287/149 92/246/149
f 82/248/150 88/265/150 84/249/150
f 87/251/151 100/276/151 96/252/151
f 77/277/160 79/288/160 84/261/160
f 80/257/161 82/259/161 79/278/161
f 86/263/162 88/265/162 82/248/162
f 85/253/163 84/249/163 88/265/163
f 83/260/164 85/262/164 96/272/164
f 98/274/165 100/276/165 87/251/165
f 97/244/166 96/252/166 100/276/166
f 95/271/167 97/244/167 90/243/167
f 92/246/168 94/286/168 99/242/168
f 91/241/169 90/289/169 94/283/169
f 89/266/170 91/268/170 78/255/170
f 81/284/171 80/285/171 93/239/171
f 95/271/172 89/282/172 77/277/172
f 117/290/147 102/291/147 115/292/147
f 123/293/148 114/294/148 121/295/148
f 110/296/149 116/297/149 122/298/149
f 106/299/150 108/300/150 103/301/150
f 111/302/151 120/303/151 109/304/151
f 101/305/152 102/306/152 103/307/152
f 104/308/153 105/309/153 106/299/153
f 107/310/154 108/311/154 109/312/154
f 110/313/173 111/314/173 112/315/173
f 113/316/156 114/317/156 115/318/156
f 116/319/157 117/290/157 118/320/157
f 119/321/158 120/322/158 121/323/158
f 122/324/159 123/325/159 124/326/159
f 101/305/160 108/327/160 107/328/160
f 104/308/161 103/301/161 102/329/161
f 110/330/162 106/299/162 105/309/162
f 109/304/163 112/315/163 111/302/163
f 107/310/164 120/322/164 119/321/164
f 122/324/165 111/302/165 110/331/165
f 121/332/166 124/326/166 123/333/166
f 119/334/167 114/294/167 113/316/167
f 116/297/168 123/293/168 122/298/168
f 115/292/169 118/335/169 117/290/169
f 113/316/170 102/306/170 101/305/170
f 105/336/171 117/290/171 116/319/171
f 119/334/172 101/305/172 107/328/172
f 117/290/147 104/337/147 102/291/147
f 123/293/148 118/335/148 114/294/148
f 110/296/149 105/338/149 116/297/149
f 106/299/150 112/339/150 108/300/150
f 111/302/151 124/326/151 120/303/151
f 101/305/160 103/307/160 108/327/160
f 104/308/161 106/299/161 103/301/161
f 110/330/162 112/339/162 106/299/162
f 109/304/163 108/340/163 112/315/163
f 107/310/164 109/312/164 120/322/164
f 122/324/165 124/326/165 111/302/165
f 121/332/166 120/303/166 124/326/166
f 119/334/167 121/295/167 114/294/167
f 116/297/168 118/335/168 123/293/168
f 115/292/169 114/294/169 118/335/169
f 113/316/170 115/318/170 102/306/170
f 105/336/171 104/337/171 117/290/171
f 119/334/172 113/316/172 101/305/172
l 72 73
